<?xml version="1.0" standalone="no"?><!DOCTYPE svg PUBLIC "-//W3C//DTD SVG 1.1//EN" "http://www.w3.org/Graphics/SVG/1.1/DTD/svg11.dtd"><svg t="1614506346307" class="icon" viewBox="0 0 1024 1024" version="1.1" xmlns="http://www.w3.org/2000/svg" p-id="12953" xmlns:xlink="http://www.w3.org/1999/xlink" width="200" height="200"><defs><style type="text/css"></style></defs><path d="M411.705004 1023.99996a118.441995 118.441995 0 0 1-83.797997-34.643999L34.762019 696.209973a118.441995 118.441995 0 0 1 0-167.595994L528.073999 35.302999A118.441995 118.441995 0 0 1 624.900996 0.66l263.533989 29.609999A118.441995 118.441995 0 0 1 992.959981 134.794995l29.609999 263.829989a118.441995 118.441995 0 0 1-33.754999 96.825997L495.503001 989.355961A118.441995 118.441995 0 0 1 411.705004 1023.99996zM611.575996 59.879998a59.220998 59.220998 0 0 0-41.749998 17.469999L76.808017 570.661978a59.220998 59.220998 0 0 0 0 83.501996l293.144989 293.144989a59.220998 59.220998 0 0 0 83.501996 0l494.199981-493.311981a59.220998 59.220998 0 0 0 17.173999-48.265998l-29.609999-263.82999a59.220998 59.220998 0 0 0-53.002997-52.409997L618.386996 59.879998z" fill="#2c2c2c" p-id="12954" data-spm-anchor-id="a313x.7781069.0.i18" class="selected"></path><path d="M194.660012 578.064977l302.322989-302.027988a45.303998 45.303998 0 0 1 43.527998-8.882999l129.989995 29.609998a79.651997 79.651997 0 0 1 55.963998 56.259998l31.682998 129.990995a45.303998 45.303998 0 0 1-10.066999 43.526998L446.053003 829.754968a59.220998 59.220998 0 0 1-79.355997-10.66L205.319012 657.419974a59.220998 59.220998 0 0 1-10.66-79.355997z" fill="#FFC824" p-id="12955" data-spm-anchor-id="a313x.7781069.0.i21" class="selected"></path><path d="M681.159993 490.713981a148.052994 148.052994 0 0 1-140.352994-193.949993 29.609999 29.609999 0 0 1 56.259998 18.655 88.831997 88.831997 0 1 0 173.221993 27.833999 88.831997 88.831997 0 0 0-76.099997-88.831997 29.609999 29.609999 0 0 1 8.588-59.219998 148.052994 148.052994 0 0 1 83.204996 251.096991 148.052994 148.052994 0 0 1-104.820996 44.415998z" fill="#2c2c2c" p-id="12956" data-spm-anchor-id="a313x.7781069.0.i19" class="selected"></path></svg>