<?xml version="1.0" standalone="no"?><!DOCTYPE svg PUBLIC "-//W3C//DTD SVG 1.1//EN" "http://www.w3.org/Graphics/SVG/1.1/DTD/svg11.dtd"><svg t="1614939451984" class="icon" viewBox="0 0 1024 1024" version="1.1" xmlns="http://www.w3.org/2000/svg" p-id="598" xmlns:xlink="http://www.w3.org/1999/xlink" width="200" height="200"><defs><style type="text/css"></style></defs><path d="M512 0C794.77 0 1024 229.23 1024 512S794.77 1024 512 1024s-512-229.23-512-512 229.23-512 512-512z m0 73.143c-242.359 0-438.857 196.498-438.857 438.857S269.64 950.857 512 950.857 950.857 754.36 950.857 512 754.36 73.143 512 73.143z" fill="#12E0C8" p-id="599"></path><path d="M590.117 676.206l-159.708-159.708 159.708-159.70700001c10.313-10.313 10.313-25.78299999 0-41.21599999-10.31400001-10.313-25.747-10.313-41.216 0l-175.178 180.297c-5.12 5.157-10.313 15.47-10.313 20.626 0 5.12 5.15700001 15.47 10.313 20.59L548.901 712.265c15.47 10.313 30.902 10.313 41.216 0a24.869 24.869 0 0 0 0-36.06z" fill="#00BFBF" p-id="600"></path></svg>