<?xml version="1.0" standalone="no"?><!DOCTYPE svg PUBLIC "-//W3C//DTD SVG 1.1//EN" "http://www.w3.org/Graphics/SVG/1.1/DTD/svg11.dtd"><svg t="1615729043473" class="icon" viewBox="0 0 1334 1024" version="1.1" xmlns="http://www.w3.org/2000/svg" p-id="647" data-spm-anchor-id="a313x.7781069.0.i0" xmlns:xlink="http://www.w3.org/1999/xlink" width="260.546875" height="200"><defs><style type="text/css"></style></defs><path d="M129.99818 750.07413h17.96112c4.837854 0.093939 8.717531 4.039373 8.717532 8.886622a8.755107 8.755107 0 0 1-8.717532 8.886621h-17.96112v17.96112a8.886621 8.886621 0 0 1-8.886621 8.717531 8.745713 8.745713 0 0 1-8.896015-8.717531v-17.96112H94.263818A8.886621 8.886621 0 0 1 85.546287 758.960752c0-4.913005 3.823314-8.896015 8.717531-8.896015h17.951726v-17.951727a8.886621 8.886621 0 0 1 8.896015-8.717531c4.903611 0 8.886621 3.823314 8.886621 8.717531v17.951727z m629.390716-723.329628h17.96112c4.837854 0.093939 8.717531 4.039373 8.717531 8.886622a8.755107 8.755107 0 0 1-8.717531 8.886621h-17.96112v17.96112a8.886621 8.886621 0 0 1-8.886622 8.717531 8.745713 8.745713 0 0 1-8.896015-8.717531V44.517745h-17.951726A8.886621 8.886621 0 0 1 714.937002 35.631124c0-4.913005 3.823314-8.896015 8.717531-8.896015h17.951726V8.783382A8.886621 8.886621 0 0 1 750.502274 0.065851c4.903611 0 8.886621 3.823314 8.886622 8.717531v17.951727z m548.556281 648.178498v-17.96112a8.745713 8.745713 0 0 0-8.896015-8.708137 8.886621 8.886621 0 0 0-8.886622 8.708137v17.96112h-17.96112a8.745713 8.745713 0 0 0-8.717531 8.886621c0 4.772097 3.917253 8.896015 8.717531 8.896015h17.96112v17.961121c0 4.884823 3.98301 8.708137 8.886622 8.708137a8.886621 8.886621 0 0 0 8.896015-8.708137v-17.961121h17.951726c4.884823 0 8.717531-3.98301 8.717531-8.896015a8.886621 8.886621 0 0 0-8.717531-8.886621h-17.951726z m-645.970934 293.390013H214.327142a17.707485 17.707485 0 0 1-17.726273-17.782637c0-9.807222 8.050565-17.773242 17.726273-17.773242h80.637163a70.66085 70.66085 0 0 1-9.459649-35.480727V381.439049a71.074181 71.074181 0 0 1 71.205696-71.036606h53.263364v-17.867181a71.074181 71.074181 0 0 1 71.205696-71.036606h426.604784a71.036606 71.036606 0 0 1 71.205696 71.036606v515.837358a70.689032 70.689032 0 0 1-9.48783 35.471333h98.372829a17.754455 17.754455 0 0 1 17.801424 17.782636 17.754455 17.754455 0 0 1-17.782636 17.782637H854.511439v17.867181a70.689032 70.689032 0 0 1-9.478437 35.480727h9.5348c9.769647 0 17.726273 7.890869 17.726273 17.773242a17.829606 17.829606 0 0 1-17.726273 17.782637h-93.553763a35.46194 35.46194 0 0 1-5.448457 43.305838 35.471333 35.471333 0 0 1-50.294894 0l-43.296445-43.305838z m65.005728-35.555879h56.551225a35.452546 35.452546 0 0 0 35.41497-35.659211V380.612387c0-19.201114-15.359012-34.635277-34.315885-34.635277H355.385814c-18.956873 0-34.315885 15.499921-34.315885 34.635277v516.49493c0 19.689596 15.997797 35.659211 35.405576 35.659211h269.914678l-9.140256-9.159044a35.490121 35.490121 0 0 1-9.243589-34.381642l-16.786884-16.796278c-52.295793 38.928285-125.77481 30.92469-168.460652-18.365057-42.685842-49.280354-40.111916-123.153915 5.88997-169.353072 46.142794-46.311884 120.241808-49.036112 169.653676-6.22815 49.411868 42.789175 57.302737 116.521827 18.064453 168.808226l16.805671 16.796278a35.443152 35.443152 0 0 1 34.372249 9.234195l59.43515 59.444544z m127.531468-88.913181h53.507604a35.58406 35.58406 0 0 0 35.405577-35.565272V292.619807a35.452546 35.452546 0 0 0-35.414971-35.565272H480.93517a35.58406 35.58406 0 0 0-35.386788 35.565272v17.782636h337.776149a71.036606 71.036606 0 0 1 71.205695 71.036606v462.404904zM227.713437 190.386088h26.490774c7.477537 0 13.527203 5.918152 13.527203 13.339326a13.433265 13.433265 0 0 1-13.527203 13.339326h-26.490774v26.490773c0 7.468144-5.918152 13.508416-13.339325 13.508416a13.433265 13.433265 0 0 1-13.339326-13.508416v-26.490773h-26.490773a13.386295 13.386295 0 0 1-13.508416-13.339326c0-7.364811 6.040272-13.339326 13.508416-13.339326h26.490773v-26.490773c0-7.468144 5.927545-13.51781 13.339326-13.51781 7.364811 0 13.339326 6.049666 13.339325 13.51781v26.490773z m-208.929535 760.153682c0-9.807222 8.050565-17.773242 17.726272-17.773242H143.318718c9.769647 0 17.726273 7.890869 17.726273 17.773242a17.829606 17.829606 0 0 1-17.726273 17.782636H36.510174a17.707485 17.707485 0 0 1-17.726272-17.782636z m560.758945-114.934259A88.922575 88.922575 0 1 0 453.786825 709.840094a88.922575 88.922575 0 0 0 125.756022 125.756023z m-187.351767-418.497857c0-9.82601 7.956626-17.782636 17.763848-17.79203h195.618392a17.782636 17.782636 0 0 1 0 35.565273H409.973716a17.726273 17.726273 0 0 1-17.782636-17.782637z m0 88.903787c0-9.816616 7.91905-17.782636 17.660515-17.782636h284.747633c9.750859 0 17.660516 7.890869 17.660515 17.782636a17.726273 17.726273 0 0 1-17.660515 17.773243H409.851595a17.679303 17.679303 0 0 1-17.660515-17.773243z m0 88.903787a17.754455 17.754455 0 0 1 17.754454-17.782636H534.480351c9.797829 0 17.754455 7.890869 17.754454 17.782636a17.754455 17.754455 0 0 1-17.754454 17.782636H409.93614a17.707485 17.707485 0 0 1-17.74506-17.782636zM54.358568 488.219411a53.347909 53.347909 0 1 1 0-106.695817 53.347909 53.347909 0 0 1 0 106.695817z m0-26.678651a26.678651 26.678651 0 1 0 0-53.338515 26.678651 26.678651 0 0 0 0 53.338515z m1102.448292-80.017166a53.347909 53.347909 0 1 1 0-106.686423 53.347909 53.347909 0 0 1 0 106.686423z m0-26.669257a26.678651 26.678651 0 1 0 0.009394-53.347909 26.678651 26.678651 0 0 0-0.009394 53.357303z" fill="#12e0c8" p-id="648"></path></svg>