<?xml version="1.0" standalone="no"?><!DOCTYPE svg PUBLIC "-//W3C//DTD SVG 1.1//EN" "http://www.w3.org/Graphics/SVG/1.1/DTD/svg11.dtd"><svg t="1614795369426" class="icon" viewBox="0 0 1024 1024" version="1.1" xmlns="http://www.w3.org/2000/svg" p-id="4983" data-spm-anchor-id="a313x.7781069.0.i10" xmlns:xlink="http://www.w3.org/1999/xlink" width="200" height="200"><defs><style type="text/css"></style></defs><path d="M512 1024C229.229714 1024 0 794.770286 0 512S229.229714 0 512 0s512 229.229714 512 512-229.229714 512-512 512z m0-73.142857c242.358857 0 438.857143-196.498286 438.857143-438.857143S754.358857 73.142857 512 73.142857 73.142857 269.641143 73.142857 512s196.498286 438.857143 438.857143 438.857143z" fill="#12e0c8" p-id="4984" data-spm-anchor-id="a313x.7781069.0.i9" class=""></path><path d="M433.883429 347.794286l159.707428 159.707428-159.707428 159.707429c-10.313143 10.313143-10.313143 25.782857 0 41.216 10.313143 10.313143 25.746286 10.313143 41.216 0l175.177142-180.297143c5.12-5.156571 10.313143-15.469714 10.313143-20.626286 0-5.12-5.156571-15.469714-10.313143-20.589714l-175.177142-175.177143c-15.469714-10.313143-30.902857-10.313143-41.216 0a24.868571 24.868571 0 0 0 0 36.059429z" fill="#00bfbf" p-id="4985" data-spm-anchor-id="a313x.7781069.0.i14" class=""></path></svg>