<?xml version="1.0" standalone="no"?><!DOCTYPE svg PUBLIC "-//W3C//DTD SVG 1.1//EN" "http://www.w3.org/Graphics/SVG/1.1/DTD/svg11.dtd"><svg t="1614506203424" class="icon" viewBox="0 0 1024 1024" version="1.1" xmlns="http://www.w3.org/2000/svg" p-id="10232" xmlns:xlink="http://www.w3.org/1999/xlink" width="200" height="200"><defs><style type="text/css"></style></defs><path d="M240 139.744h-160a64 64 0 0 0-64 64V822.4a64 64 0 0 0 64 64h160a64 64 0 0 0 64-64V203.744a64 64 0 0 0-64-64z" fill="#12161C" p-id="10233"></path><path d="M80 203.744h160V822.4h-160z" fill="#FFCD4B" p-id="10234"></path><path d="M576.096 310.4h-160a64 64 0 0 0-64 64v448a64 64 0 0 0 64 64h160a64 64 0 0 0 64-64v-448a64 64 0 0 0-64-64z" fill="#12161C" p-id="10235"></path><path d="M416.096 374.4h160v448h-160z" fill="#FFCD4B" p-id="10236"></path><path d="M944 438.4h-160a64 64 0 0 0-64 64v320a64 64 0 0 0 64 64h160a64 64 0 0 0 64-64v-320a64 64 0 0 0-64-64z" fill="#12161C" p-id="10237"></path><path d="M784 502.4h160v320h-160z" fill="#FFCD4B" p-id="10238"></path></svg>